# xmcd CD database file
#
# Track frame offsets:
#	150
#	28035
#	71295
#	101454
#	122684
#	133470
#	149627
#	171511
#
# Disc length: 2857 seconds
#
# Revision: 0
# Processed by: cddbd v1.5.1PL0 Copyright (c) Steve Scherf et al.
# Submitted via: CDex 1.51
#
DISCID=790b2708
DTITLE=Intuit Quintet - Istmo
DYEAR=2004
DGENRE=Jazz
TTITLE0=Caminata Nocturna
TTITLE1=Chaca-Chaca
TTITLE2=Something Happy
TTITLE3=A Donde Voy?
TTITLE4=Henry´s Dilemma
TTITLE5=El Tuerto
TTITLE6=Song for my Song
TTITLE7=The Silent Voice
EXTD=YEAR: 2004
EXTT0=
EXTT1=
EXTT2=
EXTT3=
EXTT4=
EXTT5=
EXTT6=
EXTT7=
PLAYORDER=
